<?xml version="1.0" encoding="UTF-8"?>
<svg id="Layer_1" data-name="Layer 1" xmlns="http://www.w3.org/2000/svg" width="100" height="100" viewBox="0 0 100 100">
  <defs>
    <style>
      .cls-1 {
        fill: #db384e;
      }
    </style>
  </defs>
  <polygon points="52.91 63.4 44.86 71.23 49.22 92.08 32.71 95.81 30.08 83.25 39.93 73.87 43.35 66.84 52.91 63.4"/>
  <polygon points="96 58.76 55.9 60.62 54.99 44.47 49.4 39.11 47.13 30.9 41.11 26.15 84.43 3.37 96 58.76"/>
  <path class="cls-1" d="M45.37,61.12c-2.67,.61-5.2,.63-5.88,2.35-1.67,4.2-5.56,12.73-10.4,15.03l-3.77-18.01c-10.11-3.59-14.49-7.39-14.66-15.02-6.93,1.17-8.94-6.02-5.31-10.36,.35-3.92,1.84-4.82,5.05-5.96,2.07-3.3,10.5-4.34,11.08,2.66,7.13-3.95,12.11-3.52,12.11-3.52,6.85,.69,8.52,4.27,8.61,5.79,.62,1.13,3.43,2.35,3.04,8.49,0,0,.75,.49,2.3,1.32,2.69,1.43,3.36,2.24,2.67,3.25-.27,.4-.88,1.7-1.03,2.31-.14,.56,.82,.37,1.06,1.07,.36,1.06-.78,1.02-.78,1.48,0,.25,1.05,.22,.78,1.27-.13,.51-.97,.88-.91,1.58,.06,.7,1.21,1.38,1.64,2.25,1.03,2.02-2.32,3.3-5.59,4.05Z"/>
</svg>