<?xml version="1.0" encoding="UTF-8"?>
<svg id="Layer_1" data-name="Layer 1" xmlns="http://www.w3.org/2000/svg" width="21.59cm" height="21.59cm" viewBox="0 0 612 612">
  <defs>
    <style>
      .cls-1 {
        fill: #db384e;
      }

      .cls-2 {
        fill: #231f20;
      }
    </style>
  </defs>
  <path class="cls-2" d="M292.9,550.47l-70.34,15.88c-7.11,1.6-14.15-2.92-15.65-10.06l-12.54-60.14c30.72-14.56,58.64-55.66,69.27-82.29,1.82-4.55,5.67-7.24,10.79-9.01l28.36,130.21c1.46,6.98-2.94,13.84-9.9,15.41Z"/>
  <path class="cls-2" d="M570.89,325.88c3.11,14.89-7.84,29.04-23.04,29.75l-216.96,9.71c9.1-5.83,15.26-13.69,11.25-21.54-2.77-5.54-4.55-6-4.92-10.46-.41-4.47,4.92-6.78,5.79-10.01,1.7-6.62-4.92-6.45-4.96-8.02-.04-2.85,7.24-2.61,4.96-9.35-1.53-4.47-7.61-3.27-6.7-6.82,.95-3.85,4.75-12.03,6.49-14.6,4.34-6.41,.08-11.54-16.91-20.63-9.8-5.25-14.6-8.39-14.6-8.39,2.48-38.91-15.38-46.69-19.31-53.84-.41-7.44-6.95-22.83-30.19-31.39L480.64,48.19c14.53-7.64,32.34,.74,35.7,16.81l54.55,260.87Z"/>
  <path class="cls-1" d="M283.08,368.02c-15.47,3.54-30.16,3.65-34.13,13.62-9.69,24.39-32.23,73.87-60.34,87.21l-21.88-104.48c-58.66-20.8-84.03-42.85-85.03-87.15-40.21,6.77-51.86-34.94-30.82-60.12,2.01-22.75,10.67-27.98,29.3-34.57,12.04-19.16,60.89-25.16,64.26,15.41,41.34-22.92,70.23-20.45,70.23-20.45,39.72,3.99,49.43,24.8,49.96,33.57,3.59,6.53,19.91,13.66,17.63,49.26,0,0,4.37,2.86,13.34,7.64,15.6,8.32,19.46,13.02,15.49,18.87-1.58,2.35-5.08,9.84-5.95,13.38-.81,3.24,4.74,2.13,6.12,6.21,2.11,6.17-4.55,5.93-4.52,8.56,.02,1.43,6.1,1.28,4.52,7.34-.77,2.95-5.66,5.08-5.29,9.16,.36,4.08,7,8,9.54,13.04,5.95,11.7-13.49,19.16-32.44,23.52Z"/>
</svg>